<?xml version="1.0" encoding="utf-8"?>
<svg viewBox="0 0 1440 320" xmlns="http://www.w3.org/2000/svg">
  <path fill="#3384DB" fill-opacity="1" d="M 0.341 255.946 L -0.039 93.824 C 34.261 67.524 98.888 80.312 170.991 49.796 C 243.164 19.251 318.723 2.24 410.05 102.028 C 461.316 158.043 549.341 202.946 617.341 213.246 C 686.041 223.946 754.341 159.946 823.341 117.246 C 891.741 74.946 960.341 52.946 1029.341 42.646 C 1097.441 31.946 1166.341 31.946 1234.341 42.646 C 1303.241 52.946 1371.341 74.946 1406.341 85.246 L 1440.341 95.946 L 1440.341 319.946 L 1406.041 319.946 C 1371.741 319.946 1303.341 319.946 1234.341 319.946 C 1166.041 319.946 1097.341 319.946 1029.341 319.946 C 960.341 319.946 891.341 319.946 823.341 319.946 C 754.641 319.946 686.341 319.946 617.341 319.946 C 548.941 319.946 480.341 319.946 411.341 319.946 C 343.241 319.946 274.341 319.946 206.341 319.946 C 137.441 319.946 69.341 319.946 34.341 319.946 L 0.341 319.946 L 0.341 255.946 Z" transform="matrix(1, 0, 0, 1, 1.1368683772161603e-13, 0)"/>
  <path fill-opacity="1" d="M0,160L60,149.3C120,139,240,117,360,90.7C480,64,600,32,720,53.3C840,75,960,149,1080,165.3C1200,181,1320,139,1380,117.3L1440,96L1440,320L1380,320C1320,320,1200,320,1080,320C960,320,840,320,720,320C600,320,480,320,360,320C240,320,120,320,60,320L0,320Z" style="fill: rgb(231, 231, 231);" transform="matrix(1, 0, 0, 1, 1.1368683772161603e-13, 0)"/>
</svg>