<svg viewBox="0 0 62 62" fill="none" xmlns="http://www.w3.org/2000/svg">
<path d="M31.2368 4.7229L32.4172 6.93993C32.6826 7.34911 32.9703 7.71118 33.3075 8.04845C34.2995 9.02801 35.2245 10.0745 36.0751 11.1806C38.0739 13.8043 39.423 16.7207 40.3852 19.8751C40.963 21.7995 41.2755 23.7785 41.3003 25.7748C41.397 31.7489 39.3486 36.8773 35.222 41.1402C34.5524 41.8148 33.8258 42.4372 33.0521 42.9927C32.6429 42.9927 32.4495 42.6803 32.2809 42.3901C31.9733 41.8545 31.77 41.2667 31.6782 40.6567C31.5319 39.9325 31.4377 39.2109 31.4848 38.4669V38.1296C31.4526 38.0528 31.093 4.89401 31.2368 4.7229Z" fill="#599636"/>
<path d="M31.2369 4.65107C31.1898 4.55435 31.1402 4.62627 31.0906 4.67587C31.1154 5.15945 30.9443 5.59095 30.6814 6.00262C30.3912 6.4118 30.0069 6.72675 29.62 7.06401C27.4798 8.9165 25.7935 11.1583 24.4444 13.663C22.6465 17.0332 21.7215 20.6464 21.4611 24.4531C21.3421 25.8245 21.8951 30.6652 22.3291 32.0614C23.5095 35.7713 25.6273 38.8787 28.3751 41.5743C29.0496 42.224 29.7713 42.8267 30.5152 43.407C30.7335 43.407 30.7558 43.2135 30.8054 43.0697C30.9021 42.7622 30.974 42.4497 31.0236 42.1323L31.5072 38.5216L31.2369 4.65107Z" fill="#6CAC48"/>
<path d="M32.4173 44.456C32.4644 43.903 32.7297 43.4467 33.0199 42.9879C32.7297 42.8689 32.514 42.6283 32.3453 42.363C32.199 42.11 32.08 41.8447 31.9858 41.5669C31.6485 40.5576 31.5766 39.4937 31.4799 38.4621V37.8372C31.3608 37.9339 31.3335 38.7522 31.3335 38.8738C31.2641 39.9674 31.1178 41.0511 30.8996 42.1249C30.8276 42.5589 30.7805 42.9929 30.5127 43.3773C30.5127 43.4244 30.5127 43.474 30.5375 43.5459C30.9715 44.823 31.0905 46.1225 31.1624 47.4493V47.9328C31.1624 48.5107 31.1376 48.3891 31.6187 48.5826C31.8122 48.6545 32.0279 48.6793 32.2213 48.8231C32.3677 48.8231 32.39 48.7041 32.39 48.6049L32.3181 47.8088V45.5918C32.2957 45.2049 32.3677 44.8206 32.4173 44.456Z" fill="#C2BFBF"/>
<path d="M11.887 55.2151V56.2863C11.887 56.3293 11.887 56.3724 11.8946 56.4129C11.9072 56.5395 11.9857 56.618 12.0997 56.6534C12.206 56.6813 12.3149 56.7015 12.4238 56.7167C12.4871 56.7244 12.5074 56.7522 12.515 56.8206C12.5226 57.0611 12.5023 57.089 12.2693 57.0738C11.7274 57.0459 11.183 57.0383 10.6411 57.0738H10.5904C10.4208 57.0814 10.4081 57.0662 10.4081 56.8965C10.4081 56.8687 10.4157 56.8332 10.4157 56.8054C10.4157 56.7547 10.4512 56.7269 10.4993 56.7269C10.6132 56.7142 10.717 56.6838 10.8234 56.6636C10.9703 56.6281 11.0564 56.537 11.069 56.3876C11.0893 56.2255 11.0893 56.0558 11.0893 55.8938L11.0969 54.0047C11.1019 53.8933 11.0412 53.7894 10.9424 53.7362C10.8158 53.6653 10.679 53.6097 10.5398 53.5666C10.4967 53.554 10.4562 53.5463 10.4208 53.5235C10.3169 53.4729 10.3144 53.3817 10.4132 53.326C10.4486 53.3058 10.4917 53.2906 10.5322 53.283C10.9596 53.2197 11.3795 53.1137 11.7857 52.9664C11.8692 52.9386 11.892 52.9462 11.8996 53.0297C11.9072 53.0804 11.8996 53.1437 11.892 53.1918C11.8794 53.283 11.8794 53.3741 11.8794 53.4602C11.8794 53.4957 11.887 53.5312 11.9224 53.5514C11.9579 53.5716 11.9933 53.5514 12.0262 53.5311C12.1731 53.4172 12.3225 53.3134 12.4846 53.2222C12.7175 53.0956 12.9632 52.9816 13.2316 52.9462C13.5557 52.9031 13.8368 52.9892 14.085 53.1994C14.1863 53.2906 14.2774 53.3944 14.3534 53.5083C14.4243 53.6122 14.4319 53.6147 14.5231 53.5438C14.7915 53.3463 15.0726 53.1716 15.3764 53.0424C15.693 52.9082 16.0171 52.888 16.3413 52.9993C16.673 53.1184 16.8984 53.3513 17.0326 53.6679C17.1465 53.9211 17.1946 54.1845 17.1946 54.458V56.347C17.1946 56.4737 17.2453 56.5522 17.3719 56.6155C17.5061 56.6661 17.653 56.694 17.7948 56.7218C17.8859 56.7421 17.8859 56.7421 17.8859 56.8358C17.8733 57.0687 17.8505 57.0814 17.6251 57.0687C17.0601 57.0358 16.4936 57.0358 15.9285 57.0687C15.8145 57.0763 15.8145 57.0763 15.8095 56.9624V56.9269C15.8019 56.737 15.8019 56.737 15.9867 56.694L16.169 56.6433C16.2957 56.6129 16.3868 56.499 16.3868 56.3673L16.4071 55.838L16.3944 54.458C16.3894 54.3339 16.364 54.2123 16.3159 54.0984C16.1387 53.6679 15.7512 53.5134 15.379 53.5565C15.0979 53.5843 14.8497 53.6983 14.6168 53.8603C14.5661 53.8958 14.5332 53.9388 14.5383 54.0072C14.6016 54.4579 14.5585 54.9087 14.5661 55.3594V56.3395C14.5661 56.5167 14.637 56.6003 14.8067 56.6433L15.1308 56.7142C15.1815 56.7218 15.2093 56.7421 15.2093 56.7978V56.8484C15.2017 57.046 15.1891 57.0535 14.9915 57.0535C14.4268 57.0257 13.8647 57.0333 13.3076 57.0535C13.1177 57.0612 13.1025 57.0409 13.11 56.8485C13.1177 56.7345 13.1303 56.7294 13.2367 56.7066L13.4696 56.6636C13.6748 56.6205 13.7507 56.5445 13.7659 56.3243L13.7862 55.8507L13.7735 54.4352C13.7609 54.2579 13.7229 54.0908 13.6266 53.9287C13.4848 53.6679 13.2645 53.5337 12.9632 53.521C12.6593 53.5008 12.3934 53.6122 12.1376 53.754C11.9604 53.8578 11.8844 53.9794 11.8971 54.1845V55.2126L11.887 55.2151ZM25.1637 55.2582V56.2508C25.1637 56.3217 25.1688 56.3926 25.1764 56.461C25.1815 56.5572 25.2524 56.6383 25.3461 56.6585C25.4676 56.694 25.5917 56.7142 25.7183 56.7218C25.7892 56.7294 25.8019 56.7573 25.8095 56.813V56.8636C25.8019 57.1093 25.774 57.1396 25.5335 57.1245C24.9966 57.089 24.4623 57.0966 23.928 57.1245L23.7229 57.1321C23.6798 57.1321 23.6722 57.1118 23.6596 57.0814C23.6393 56.9837 23.6393 56.8829 23.6596 56.7851C23.6672 56.7421 23.695 56.7345 23.7381 56.7218C23.8419 56.7092 23.928 56.6864 24.0267 56.6712C24.204 56.6281 24.2673 56.5572 24.2724 56.3749L24.2926 55.7823V54.0477C24.2926 53.9211 24.242 53.8426 24.1306 53.7869C24.0039 53.716 23.8697 53.6679 23.7279 53.6172C23.6849 53.6046 23.6444 53.5894 23.6089 53.5666C23.5177 53.5033 23.5051 53.4121 23.5963 53.3412C23.6368 53.3083 23.6849 53.288 23.7381 53.2855C24.1888 53.2146 24.6269 53.1159 25.0498 52.9462C25.1004 52.9259 25.1207 52.9386 25.1409 52.9816C25.1612 53.0247 25.1688 53.0728 25.1612 53.1234L25.1409 53.4552C25.1409 53.4982 25.1207 53.559 25.1536 53.5742C25.1967 53.602 25.2245 53.5387 25.26 53.5235C25.4676 53.3488 25.6975 53.2023 25.9437 53.088C26.1615 52.9842 26.3868 52.9183 26.6401 52.9335C27.1136 52.9614 27.4504 53.2019 27.6682 53.6172C27.7821 53.835 27.8302 54.0756 27.8505 54.3212L27.8708 54.8378L27.8783 56.3952C27.8859 56.5142 27.929 56.5927 28.048 56.6357C28.172 56.6762 28.299 56.7067 28.4278 56.7269C28.5418 56.7395 28.5469 56.7623 28.5545 56.8687V56.9042C28.5418 57.1447 28.5266 57.1498 28.286 57.1371C27.7605 57.1093 27.2339 57.1093 26.7084 57.1371C26.6375 57.1447 26.5666 57.1371 26.5033 57.1447C26.4603 57.1447 26.4324 57.1371 26.4248 57.0941C26.4122 57.0029 26.397 56.9117 26.4172 56.813C26.4248 56.7699 26.4451 56.7497 26.4957 56.7421L26.8199 56.6914C26.9338 56.6636 26.9971 56.5876 27.0098 56.4863L27.0224 56.2888L27.0148 54.815C27.0148 54.6454 27.0072 54.4757 26.9718 54.3086C26.8882 53.9464 26.6122 53.6907 26.24 53.6527C25.9158 53.6172 25.6221 53.7033 25.3511 53.878C25.2169 53.9616 25.1612 54.0832 25.1612 54.23V55.2936C25.1612 55.2733 25.1612 55.2733 25.1688 55.2733L25.1637 55.2582Z" fill="#47474A"/>
<path d="M45.7993 53.2651C45.7208 52.7511 45.5309 52.2928 45.1991 51.8901C44.9104 51.5356 44.5382 51.2596 44.1128 51.0874C43.6696 50.9051 43.1961 50.8468 42.7175 50.8342C42.52 50.8265 39.8281 50.8696 39.6306 50.8342C39.58 50.8265 39.5471 50.8417 39.5167 50.8848C39.4812 50.9354 39.4457 50.9911 39.4255 51.0469C39.3419 51.2368 39.3419 51.2241 39.5445 51.2519C39.7142 51.2798 39.8763 51.295 40.0383 51.3431C40.1852 51.3938 40.2915 51.4773 40.327 51.6394C40.3397 51.7179 40.3549 54.197 40.3549 55.3517L40.327 56.1773C40.3194 56.2406 40.3143 56.3039 40.2915 56.3596C40.2637 56.4432 40.213 56.5141 40.1295 56.5495C40.0358 56.5926 39.937 56.6204 39.8332 56.628C39.6433 56.6483 39.6154 56.6559 39.5521 56.8686L39.5318 56.9471C39.5192 57.0382 39.5243 57.0534 39.6154 57.0534L41.7223 57.0737L42.5478 57.061L43.1176 56.9901C43.7658 56.8711 44.3432 56.6027 44.837 56.1722C45.1181 55.924 45.3485 55.6227 45.5131 55.2834C45.7106 54.8883 45.7942 54.4578 45.817 54.0223C45.855 53.7716 45.8423 53.5184 45.7993 53.2651ZM44.7787 54.2654C44.7509 54.7161 44.6597 55.1542 44.4268 55.5467C44.1305 56.0608 43.7076 56.4204 43.1226 56.547C42.8694 56.5976 42.6162 56.6255 42.3503 56.59C42.1604 56.5698 41.978 56.547 41.8008 56.4837C41.4843 56.3697 41.3703 56.1747 41.3652 55.8658L41.3576 51.6166C41.3576 51.3634 41.4716 51.3077 41.6539 51.3001C41.9299 51.2798 42.211 51.2874 42.4845 51.3127C42.7782 51.3406 43.0644 51.4115 43.3379 51.5179C43.5405 51.6014 43.7278 51.7179 43.895 51.8622C44.2748 52.1864 44.5281 52.5941 44.6673 53.0727C44.7813 53.4601 44.8015 53.8551 44.7813 54.2502L44.7787 54.2654ZM51.6564 54.9567C51.6564 54.9136 51.6564 54.8782 51.6488 54.8377C51.5855 54.4502 51.3804 54.154 51.0639 53.9286C50.8588 53.7817 50.6283 53.683 50.3878 53.6121C50.3447 53.5994 50.3093 53.5842 50.2687 53.5766C50.2763 53.5411 50.2966 53.5336 50.3194 53.526C50.4612 53.455 50.5954 53.3791 50.7144 53.2727C50.9322 53.0904 51.0766 52.865 51.15 52.589C51.193 52.4421 51.193 52.2927 51.1778 52.1383C51.155 51.7711 50.9651 51.4343 50.6638 51.2216C50.3397 50.981 49.9598 50.8823 49.5648 50.8772C48.8026 50.8645 48.0353 50.8772 47.2756 50.8772C47.0578 50.8772 46.84 50.8898 46.6121 50.8569C46.5691 50.8493 46.5083 50.8367 46.4779 50.8848C46.4273 50.976 46.364 51.0671 46.3437 51.1735C46.3361 51.2241 46.3513 51.252 46.407 51.257L46.8932 51.328C47.0831 51.3558 47.2173 51.4621 47.2325 51.6318C47.2452 51.7483 47.2528 51.8673 47.2528 51.9838L47.2402 53.3006L47.2325 55.9063C47.2325 56.0608 47.2123 56.2102 47.1819 56.3647C47.1667 56.4659 47.0958 56.547 46.9996 56.5748C46.8577 56.6179 46.7236 56.6584 46.5767 56.6584C46.4956 56.6508 46.4197 56.7015 46.3944 56.7774C46.3665 56.8407 46.3437 56.9116 46.331 56.9749C46.3184 57.0585 46.3386 57.0889 46.4222 57.0788C46.4855 57.0712 48.8102 57.1294 49.2482 57.0864C49.5091 57.0585 49.7648 57.023 50.0231 56.9446C50.4663 56.8027 50.8765 56.6001 51.2006 56.2532C51.4691 55.9721 51.6235 55.6328 51.6362 55.2378C51.6564 55.1466 51.6564 55.0555 51.6564 54.9567ZM48.2379 52.0674L48.2581 51.5027C48.2581 51.3963 48.3011 51.3482 48.405 51.3254C48.5747 51.2899 48.7443 51.3051 48.9115 51.3127C49.0811 51.3254 49.2432 51.3482 49.4128 51.3963C49.7218 51.4875 49.9623 51.6647 50.1042 51.961C50.1675 52.0952 50.2029 52.2421 50.2029 52.3915C50.2105 52.589 50.1953 52.7789 50.1193 52.9689C50.0003 53.2297 49.8104 53.3994 49.5344 53.4475C49.2584 53.4981 48.4784 53.4753 48.3569 53.4753C48.2505 53.4753 48.2429 53.4627 48.2429 53.3563V52.6928C48.2252 52.4877 48.2252 52.2801 48.2353 52.0724L48.2379 52.0674ZM50.5271 55.8582C50.408 56.1747 50.1877 56.395 49.8788 56.5141C49.7091 56.5774 49.5394 56.6179 49.3622 56.6052C49.1444 56.5976 48.9266 56.6052 48.7063 56.5622C48.41 56.4989 48.2758 56.2178 48.2556 56.0127C48.2201 55.6531 48.2429 55.2859 48.2353 55.02V54.0907C48.2353 53.9767 48.248 53.9438 48.3695 53.9438L49.033 53.9514L49.4837 54.002C49.8003 54.073 50.089 54.1919 50.3143 54.4376C50.4967 54.6351 50.5954 54.8731 50.6182 55.134C50.6385 55.3796 50.6258 55.6202 50.5346 55.8531L50.5271 55.8582Z" fill="#C2BFBF"/>
<path d="M32.6239 53.7361L32.8062 53.764C33.0037 53.7716 33.2367 53.7007 33.3076 53.4247C33.3455 53.2932 33.3455 53.1536 33.3076 53.0221C33.2645 53.0221 33.2443 53.0575 33.224 53.0727C33.1177 53.1563 32.9986 53.2069 32.872 53.2196C32.6188 53.2474 32.3656 53.2322 32.1174 53.1411L31.773 53.022C31.5325 52.9435 31.2792 52.9106 31.026 52.9233C30.6664 52.9511 30.3296 53.0702 30.0105 53.2398C29.6712 53.4221 29.4332 53.6982 29.3192 54.0704C29.2559 54.2882 29.2483 54.5136 29.2762 54.7389C29.3471 55.253 29.6155 55.6126 30.0941 55.8025C30.122 55.8101 30.1448 55.8228 30.1726 55.8303C30.2359 55.8658 30.2435 55.9013 30.1852 55.9494L30.008 56.0684L29.5851 56.3292C29.4788 56.3925 29.4661 56.4432 29.5015 56.5546C29.5446 56.6863 29.6206 56.8027 29.7269 56.8939C29.8231 56.9775 29.932 57.0433 30.051 57.0914C30.1296 57.1269 30.1296 57.1421 30.0587 57.2054L29.656 57.4941C29.5218 57.5979 29.3876 57.6992 29.2762 57.8334C29.1978 57.9167 29.1413 58.0181 29.1117 58.1286C29.0821 58.239 29.0803 58.3551 29.1065 58.4665C29.1597 58.7121 29.2863 58.9324 29.4737 59.0995C29.6566 59.2698 29.8796 59.3909 30.1219 59.4515C30.517 59.5655 30.9247 59.5706 31.3273 59.4946C31.9047 59.3882 32.4111 59.1325 32.8062 58.6994C33.0822 58.4108 33.2417 58.0714 33.2569 57.6688C33.2898 57.1851 32.9657 56.7521 32.4947 56.6407L32.1149 56.5698L30.9525 56.4659C30.8259 56.4584 30.6993 56.4381 30.5929 56.3748C30.4588 56.2912 30.4233 56.1292 30.5094 56.0228C30.5727 55.9443 30.6512 55.8962 30.7499 55.8886L30.9753 55.8683C31.4207 55.823 31.8389 55.6327 32.1655 55.3264C32.3399 55.1646 32.4647 54.9564 32.5251 54.7263C32.6087 54.4224 32.6087 54.1084 32.5377 53.7995C32.5175 53.721 32.5251 53.7159 32.6213 53.7285L32.6239 53.7361ZM30.8968 57.2459C30.9399 57.2535 30.9804 57.2459 31.0235 57.2459C31.3197 57.2585 31.6236 57.2814 31.9123 57.3599C32.006 57.3877 32.0997 57.4232 32.1883 57.4662C32.4694 57.6207 32.5757 57.8891 32.5403 58.1778C32.4972 58.4943 32.3225 58.7197 32.0465 58.8691C31.8642 58.9729 31.6591 59.016 31.4464 59.0388C31.3678 59.0464 31.2995 59.0388 31.221 59.0388C30.9753 59.0464 30.7348 59.0185 30.5018 58.9197C30.3397 58.8564 30.2055 58.7653 30.0865 58.6387C29.8409 58.393 29.7244 57.9423 30.0941 57.5751C30.3195 57.3649 30.5727 57.2181 30.8968 57.2459ZM31.7021 55.0479C31.5552 55.4201 31.2286 55.5341 30.907 55.4834C30.6107 55.4404 30.3929 55.2783 30.2511 55.0099C30.0688 54.6503 30.0181 54.2781 30.1245 53.8906C30.203 53.602 30.3777 53.3842 30.6892 53.3335C31.0842 53.2626 31.4615 53.4044 31.6616 53.7995C31.7654 53.9894 31.8084 54.2224 31.8084 54.5541C31.8009 54.6883 31.773 54.8706 31.7021 55.0479ZM22.8239 54.5668C22.7606 54.1869 22.6188 53.84 22.3579 53.5513C21.9705 53.1208 21.4767 52.9334 20.9196 52.9309C20.4334 52.9233 19.9751 53.0651 19.5674 53.3183C19.1647 53.5589 18.871 53.9438 18.7418 54.3971C18.6228 54.8048 18.6279 55.2226 18.7216 55.6379C18.9672 56.7521 19.8282 57.2307 20.8563 57.1598C21.1602 57.1395 21.4489 57.0408 21.7224 56.9066C22.1301 56.7167 22.4263 56.4128 22.6314 56.0127C22.7935 55.681 22.8644 55.329 22.8568 54.9263L22.8239 54.5668ZM21.8236 56.1317C21.7198 56.4558 21.4362 56.6888 21.0969 56.7243C20.7879 56.7673 20.4967 56.6888 20.2384 56.5065C20.0511 56.3672 19.8991 56.1874 19.7953 55.9772C19.5066 55.3847 19.456 54.7668 19.6054 54.1312C19.6535 53.9337 19.7548 53.7564 19.9016 53.6171C20.1625 53.3766 20.4663 53.3209 20.8031 53.3918C21.1273 53.4627 21.3729 53.6374 21.5755 53.9058C21.7781 54.1742 21.8718 54.4832 21.9275 54.8073C21.9553 54.9694 21.9553 55.139 21.9629 55.2429C21.9629 55.5822 21.9351 55.8608 21.8287 56.1317H21.8236ZM38.2202 54.625C38.1696 54.2173 38.0151 53.8425 37.7264 53.5336C37.3466 53.1183 36.8528 52.941 36.3033 52.9334C35.8297 52.9258 35.3942 53.06 34.9915 53.293C34.5408 53.5614 34.2293 53.9413 34.1103 54.4553C33.9685 55.0175 34.0267 55.61 34.28 56.1317C34.5129 56.6255 34.908 56.942 35.4296 57.0838C36.007 57.2383 36.5565 57.1674 37.0933 56.9066C37.5593 56.6812 37.8885 56.3292 38.0809 55.8506C38.1949 55.5695 38.2354 55.2657 38.243 54.9137C38.2481 54.8504 38.2329 54.7364 38.2202 54.625ZM37.2478 56.0405C37.1339 56.4204 36.8958 56.6685 36.4932 56.7242C36.1969 56.7673 35.9158 56.6964 35.6626 56.5267C35.4448 56.3799 35.2903 56.1823 35.1764 55.9494C35.0498 55.7038 34.9789 55.4429 34.951 55.1745C34.908 54.8428 34.908 54.5186 34.9865 54.1869C35.0017 54.1211 35.022 54.0577 35.0498 53.997C35.2473 53.5032 35.6828 53.2778 36.1995 53.3918C36.5438 53.4703 36.8047 53.6602 37.0022 53.9489C37.1921 54.2299 37.2832 54.5414 37.3263 54.8757C37.3466 55.0099 37.3542 55.1517 37.3466 55.2707C37.3466 55.5467 37.3263 55.7999 37.2428 56.0456L37.2478 56.0405Z" fill="#47474A"/>
</svg>
